<svg width="47" height="40" viewBox="0 0 47 40" fill="none" xmlns="http://www.w3.org/2000/svg">
<g opacity="0.85">
<path d="M6.43751 22.9185H2.57485C1.71648 22.9185 1.02979 22.2318 1.02979 21.3734V5.40774C1.02979 3.51933 2.57485 1.88843 4.5491 1.88843C6.43751 1.88843 8.06841 3.43349 8.06841 5.40774V21.3734C8.06841 22.2318 7.38172 22.9185 6.43751 22.9185ZM3.00403 20.9442H6.00833V5.40774C6.00833 4.54937 5.32163 3.94851 4.5491 3.94851C3.69073 3.94851 3.08987 4.63521 3.08987 5.40774V20.9442H3.00403Z" fill="#F2653D"/>
<path d="M4.63502 37.6824C4.12 37.6824 3.60498 37.2533 3.60498 36.6524V21.8884C3.60498 21.3734 4.03417 20.8584 4.63502 20.8584C5.23588 20.8584 5.66507 21.2876 5.66507 21.8884V36.5666C5.57923 37.2533 5.15005 37.6824 4.63502 37.6824Z" fill="#F2653D"/>
<path d="M8.06867 37.6824C7.55365 37.6824 7.03863 37.2532 7.03863 36.6523V29.3562C7.03863 28.5837 6.60944 27.897 6.00858 27.897H3.09013C2.57511 27.897 2.06009 28.5837 2.06009 29.3562V36.6523C2.06009 37.1674 1.6309 37.6824 1.03004 37.6824C0.429185 37.6824 0 37.2532 0 36.6523V29.3562C0 27.4678 1.37339 25.9227 3.00429 25.9227H5.92275C7.55365 25.9227 8.92704 27.4678 8.92704 29.3562V36.6523C9.09871 37.2532 8.58369 37.6824 8.06867 37.6824Z" fill="#F2653D"/>
<path d="M42.8324 37.6825C40.7723 37.6825 39.1414 36.0516 39.1414 33.9915V19.3992C39.1414 19.1417 39.2272 18.8842 39.3989 18.7125C37.5105 16.91 36.4805 14.3349 36.4805 11.4164C36.4805 5.92285 40.6006 1.54517 45.665 1.54517C46.18 1.54517 46.6951 1.97435 46.6951 2.57521V33.9057C46.5234 36.0516 44.8066 37.6825 42.8324 37.6825ZM41.1157 20.4293V33.9057C41.1157 34.8499 41.8882 35.6224 42.8324 35.6224C43.7766 35.6224 44.5491 34.8499 44.5491 33.9057V3.77693C41.1157 4.29195 38.3689 7.55375 38.3689 11.5881C38.3689 14.5924 39.9139 17.3392 42.4032 18.6267C42.8324 18.8842 43.0041 19.3134 42.9182 19.7426C42.8324 20.1718 42.4032 20.5151 41.974 20.5151H41.1157V20.4293Z" fill="#F2653D"/>
<path d="M23.09 33.9054C15.3647 33.9054 9.09863 27.5535 9.09863 19.914C9.09863 12.1887 15.4506 5.92261 23.09 5.92261C30.8154 5.92261 37.0815 12.2745 37.0815 19.914C37.0815 27.6393 30.8154 33.9054 23.09 33.9054ZM23.09 7.89686C16.3948 7.89686 11.0729 13.3046 11.0729 19.914C11.0729 26.5235 16.4806 31.9312 23.09 31.9312C29.6995 31.9312 35.1072 26.5235 35.1072 19.914C35.1072 13.3046 29.6995 7.89686 23.09 7.89686Z" fill="#F2653D"/>
<path d="M23.09 33.9054C15.3647 33.9054 9.09863 27.5535 9.09863 19.914C9.09863 12.1887 15.4506 5.92261 23.09 5.92261C30.8154 5.92261 37.0815 12.2745 37.0815 19.914C37.0815 27.6393 30.8154 33.9054 23.09 33.9054ZM23.09 7.89686C16.3948 7.89686 11.0729 13.3046 11.0729 19.914C11.0729 26.5235 16.4806 31.9312 23.09 31.9312C29.6995 31.9312 35.1072 26.5235 35.1072 19.914C35.1072 13.3046 29.6995 7.89686 23.09 7.89686Z" fill="#F2653D"/>
<path d="M23.09 40C18.6264 40 14.3346 38.5408 10.9011 35.8799C10.4719 35.5365 10.3861 34.9356 10.7294 34.5065C11.0728 34.0773 11.6736 33.9914 12.1028 34.3348C15.2788 36.7382 19.1415 38.0258 23.09 38.0258C23.605 38.0258 24.12 38.455 24.12 39.0558C24.0342 39.485 23.605 40 23.09 40Z" fill="#F2653D"/>
<path d="M10.4724 6.69528C10.2148 6.69528 9.95734 6.60944 9.69982 6.35193C9.35648 5.92274 9.35648 5.32189 9.78566 4.97854C13.3908 1.71674 18.1977 0 23.0904 0C27.8973 0 32.5324 1.71674 36.1376 4.80687C36.5668 5.15021 36.5668 5.75107 36.2234 6.18026C35.8801 6.60944 35.2792 6.60944 34.85 6.26609C31.5882 3.43348 27.3822 1.88841 23.0904 1.88841C18.7127 1.88841 14.4209 3.51931 11.1591 6.35193C10.9015 6.60944 10.644 6.69528 10.4724 6.69528Z" fill="#F2653D"/>
<path d="M21.6311 32.3605C21.5452 32.3605 21.4594 32.3605 21.3736 32.3605C20.9444 32.2747 20.6869 31.8455 20.6869 31.4163V21.8884H16.1375C15.7942 21.8884 15.4508 21.7167 15.2791 21.3734C15.1075 21.03 15.1075 20.6867 15.2791 20.3433L23.6912 6.95277C23.9487 6.60942 24.3779 6.43775 24.807 6.52358C25.2362 6.60942 25.4937 7.03861 25.4937 7.46779V16.9099H30.0431C30.3864 16.9099 30.7298 17.0815 30.9015 17.4249C31.0731 17.7682 31.0731 18.1116 30.9015 18.4549L22.4894 31.8455C22.3178 32.1888 21.9744 32.3605 21.6311 32.3605ZM17.9401 19.9141H21.7169C22.2319 19.9141 22.747 20.3433 22.747 20.9442V27.897L28.4122 18.9699H24.6354C24.1203 18.9699 23.6053 18.5407 23.6053 17.9399V10.9871L17.9401 19.9141Z" fill="#F2653D"/>
</g>
</svg>
