<svg width="16" height="17" viewBox="0 0 16 17" fill="none" xmlns="http://www.w3.org/2000/svg">
<g clip-path="url(#clip0_28_2553)">
<path d="M10.0336 3.7028C10.6848 3.82984 11.2832 4.1483 11.7523 4.61742C12.2214 5.08654 12.5399 5.68498 12.6669 6.33613M10.0336 1.03613C11.3865 1.18642 12.648 1.79225 13.6111 2.75414C14.5742 3.71603 15.1816 4.97681 15.3336 6.32947M14.6669 11.6495V13.6495C14.6677 13.8351 14.6297 14.0189 14.5553 14.189C14.4809 14.3592 14.3718 14.5119 14.235 14.6374C14.0982 14.7629 13.9367 14.8585 13.7608 14.9179C13.5849 14.9774 13.3985 14.9995 13.2136 14.9828C11.1622 14.7599 9.19161 14.0589 7.46028 12.9361C5.8495 11.9126 4.48384 10.5469 3.46028 8.93613C2.3336 7.19694 1.63244 5.2168 1.41361 3.15613C1.39695 2.97178 1.41886 2.78597 1.47795 2.61055C1.53703 2.43513 1.63199 2.27393 1.75679 2.13721C1.88159 2.0005 2.03348 1.89127 2.20281 1.81648C2.37213 1.74169 2.55517 1.70297 2.74028 1.7028H4.74028C5.06382 1.69962 5.37748 1.81419 5.62279 2.02515C5.8681 2.23612 6.02833 2.5291 6.07361 2.84947C6.15803 3.48951 6.31458 4.11795 6.54028 4.7228C6.62998 4.96142 6.64939 5.22074 6.59622 5.47005C6.54305 5.71936 6.41952 5.94821 6.24028 6.12947L5.39361 6.97613C6.34265 8.64516 7.72458 10.0271 9.39361 10.9761L10.2403 10.1295C10.4215 9.95022 10.6504 9.8267 10.8997 9.77353C11.149 9.72036 11.4083 9.73977 11.6469 9.82947C12.2518 10.0552 12.8802 10.2117 13.5203 10.2961C13.8441 10.3418 14.1399 10.5049 14.3513 10.7545C14.5627 11.004 14.6751 11.3225 14.6669 11.6495Z" stroke="#F2653D" stroke-width="2" stroke-linecap="round" stroke-linejoin="round"/>
</g>
<defs>
<clipPath id="clip0_28_2553">
<rect width="16" height="16" fill="white" transform="translate(0 0.369629)"/>
</clipPath>
</defs>
</svg>
