<svg width="41" height="40" viewBox="0 0 41 40" fill="none" xmlns="http://www.w3.org/2000/svg">
<path d="M38.2334 3.49512C37.9389 1.65046 36.3684 0.194153 34.4052 0.194153H6.62659C4.76159 0.194153 3.09291 1.55338 2.79844 3.49512L0.246336 21.8446C0.0500207 22.9126 0.442651 24.0776 1.12975 24.8543C1.81686 25.7281 2.89659 26.1165 3.97633 26.1165H4.85975V27.6699C4.85975 29.0291 5.93948 30.0971 7.31369 30.0971H14.1847V30.2912C14.381 32.233 15.3626 33.8835 17.0313 34.9514L17.1295 35.0485V39.2233H10.1603C9.96395 39.2233 9.76763 39.4175 9.76763 39.6116C9.76763 39.8058 9.96395 40 10.1603 40H30.8715C31.0679 40 31.2642 39.8058 31.2642 39.6116C31.2642 39.4175 31.0679 39.2233 30.8715 39.2233H23.9023V35.0485L24.0005 34.9514C25.571 33.8835 26.6508 32.233 26.8471 30.2912V30.0971H33.7181C35.0923 30.0971 36.1721 29.0291 36.1721 27.6699V26.1165H37.0555C38.1352 26.1165 39.2149 25.631 39.902 24.8543C40.5891 23.9806 40.9818 22.9126 40.7855 21.8446L38.2334 3.49512ZM12.2216 0.970852H28.9084L29.4973 7.37862H28.6139C28.4176 7.37862 28.2213 7.57279 28.2213 7.76697V11.2621C28.2213 11.4563 28.4176 11.6505 28.6139 11.6505H29.89L30.2826 16.3107H29.3992C29.2029 16.3107 29.0065 16.5048 29.0065 16.699V18.0582H26.5526C26.3563 18.0582 26.16 18.2524 26.16 18.4466C26.16 18.6408 26.3563 18.8349 26.5526 18.8349H29.0065V20.1942C29.0065 20.3883 29.2029 20.5825 29.3992 20.5825H30.6752L31.166 25.631H20.9576V20.3883H22.0373C22.2337 20.3883 22.43 20.1942 22.43 20V18.6408H24.0005C24.1968 18.6408 24.3931 18.4466 24.3931 18.2524C24.3931 18.0582 24.1968 17.8641 24.0005 17.8641H22.3318V16.5048C22.3318 16.3107 22.1355 16.1165 21.9392 16.1165H18.9945C18.7981 16.1165 18.6018 16.3107 18.6018 16.5048V17.8641H16.9331C16.7368 17.8641 16.5405 18.0582 16.5405 18.2524C16.5405 18.4466 16.7368 18.6408 16.9331 18.6408H18.6018V20C18.6018 20.1942 18.7981 20.3883 18.9945 20.3883H20.0742V25.4369H9.86579L10.3566 20.3883H11.6326C11.8289 20.3883 12.0253 20.1942 12.0253 20V18.6408H14.4792C14.6755 18.6408 14.8718 18.4466 14.8718 18.2524C14.8718 18.0582 14.6755 17.8641 14.4792 17.8641H12.0253V16.5048C12.0253 16.3107 11.8289 16.1165 11.6326 16.1165H10.7492L11.1418 11.4563H12.4179C12.6142 11.4563 12.8105 11.2621 12.8105 11.0679V9.70872H15.0681C15.2645 9.70872 15.4608 9.51454 15.4608 9.32037C15.4608 9.12619 15.2645 8.93202 15.0681 8.93202H12.8105V7.57279C12.8105 7.37862 12.6142 7.18444 12.4179 7.18444H11.5345L12.2216 0.970852ZM31.166 8.05823V10.8738H28.9084V8.05823H31.166ZM32.0494 16.8932V19.7087H29.7918V16.8932H32.0494ZM19.3871 19.7087V16.8932H21.6447V19.7087H19.3871ZM9.08053 19.7087V16.8932H11.24V19.7087H9.08053ZM9.86579 10.7767V7.96114H12.1234V10.7767H9.86579ZM4.07449 25.4369C3.19107 25.4369 2.30765 25.0485 1.7187 24.3689C1.12976 23.6893 0.835282 22.8155 1.0316 21.9417L1.52239 18.6408H5.35054C5.54685 18.6408 5.74317 18.4466 5.74317 18.2524C5.74317 18.0582 5.54685 17.8641 5.35054 17.8641H1.62054L3.68186 3.49512C3.87817 1.94173 5.25238 0.873764 6.72474 0.873764H11.5345L10.9455 7.28153H9.66947C9.47316 7.28153 9.27684 7.47571 9.27684 7.66988V9.0291H5.93948C5.74317 9.0291 5.54685 9.22328 5.54685 9.41745C5.54685 9.61163 5.74317 9.8058 5.93948 9.8058H9.27684V11.165C9.27684 11.3592 9.47316 11.5534 9.66947 11.5534H10.5529L10.1603 16.2136H8.78606C8.58974 16.2136 8.39343 16.4077 8.39343 16.6019V20.0971C8.39343 20.2912 8.58974 20.4854 8.78606 20.4854H9.76763L9.27684 25.534H4.07449V25.4369ZM23.2152 39.2233H17.9147V35.4369L18.2092 35.534C18.9945 35.8252 19.7797 36.0194 20.565 36.0194C21.3502 36.0194 22.1355 35.8252 22.9208 35.534L23.2152 35.4369V39.2233ZM26.16 30.3883C25.8655 33.2039 23.4116 35.3398 20.565 35.3398C17.7184 35.3398 15.2645 33.2039 14.97 30.3883V30.0971H26.16V30.3883ZM35.485 27.6699C35.485 28.6408 34.6997 29.4175 33.7181 29.4175H7.41185C6.43027 29.4175 5.64501 28.6408 5.64501 27.6699V26.1165H35.485V27.6699ZM39.4113 24.3689C38.8223 25.0485 37.9389 25.4369 37.0555 25.4369H31.9513L31.4605 20.3883H32.4421C32.6384 20.3883 32.8347 20.1942 32.8347 20V16.5048C32.8347 16.3107 32.6384 16.1165 32.4421 16.1165H31.0679L30.6752 11.4563H31.5586C31.755 11.4563 31.9513 11.2621 31.9513 11.0679V9.70872H35.2886C35.485 9.70872 35.6813 9.51454 35.6813 9.32037C35.6813 9.12619 35.485 8.93202 35.2886 8.93202H31.9513V7.57279C31.9513 7.37862 31.755 7.18444 31.5586 7.18444H30.2826L29.5955 0.970852H34.4052C35.9757 0.970852 37.2518 2.1359 37.4481 3.59221L39.5094 17.9611H35.7794C35.5831 17.9611 35.3868 18.1553 35.3868 18.3495C35.3868 18.5437 35.5831 18.7378 35.7794 18.7378H39.6076L40.0984 22.0388C40.1965 22.8155 40.0002 23.6893 39.4113 24.3689Z" fill="white" fill-opacity="0.85"/>
<path d="M21.9393 19.903V19.4176V17.0875V16.602H21.4485H19.6817H19.1909V17.0875V19.4176V19.903H19.6817H21.4485H21.9393ZM19.6817 17.0875H21.4485V19.4176H19.6817V17.0875Z" fill="white" fill-opacity="0.85"/>
<path d="M28.7119 7.86404V8.34948V10.6796V11.165H29.2027H30.9695H31.4603V10.6796V8.34948V7.86404H30.9695H29.2027H28.7119ZM30.9695 10.5825H29.2027V8.25239H30.9695V10.5825Z" fill="white" fill-opacity="0.85"/>
<path d="M11.3381 7.57293H11.8289H12.516C12.6142 7.57293 12.6142 7.67002 12.6142 7.67002V8.83507V9.3205H13.1049H15.0681C15.1663 9.3205 15.1663 9.41759 15.1663 9.41759C15.1663 9.51468 15.0681 9.51468 15.0681 9.51468H13.1049H12.6142V10.0001V11.1652C12.6142 11.2623 12.516 11.2623 12.516 11.2623H11.4363H11.0436V11.6506L10.651 15.8254V16.3108H11.1418H11.8289C11.927 16.3108 11.927 16.4079 11.927 16.4079V17.5729V18.0584H12.2215H14.4791C14.5773 18.0584 14.5773 18.1555 14.5773 18.1555C14.5773 18.2525 14.4791 18.2525 14.4791 18.2525H12.2215H11.7307V18.738V19.903C11.7307 20.0001 11.6326 20.0001 11.6326 20.0001H10.5528H10.1602V20.3885L9.76758 24.9516V25.437H10.2584H20.0741H20.5649V24.9516V20.3885V19.903H20.0741H19.0926C18.9944 19.903 18.9944 19.8059 18.9944 19.8059V18.6409V18.4467H18.5036H17.1294C17.0312 18.4467 17.0312 18.3496 17.0312 18.3496C17.0312 18.2525 17.1294 18.2525 17.1294 18.2525H18.5036H18.9944V17.7671V16.505C18.9944 16.4079 19.0926 16.4079 19.0926 16.4079H22.0373C22.1354 16.4079 22.1354 16.505 22.1354 16.505V17.67V18.1555H22.6262H24.0004C24.0986 18.1555 24.0986 18.2525 24.0986 18.2525C24.0986 18.3496 24.0004 18.3496 24.0004 18.3496H22.6262H22.1354V18.8351V20.0001C22.1354 20.0972 22.0373 20.0972 22.0373 20.0972H21.1539H20.6631V20.5826V25.1457V25.6312H21.1539H30.9696H31.4604V25.1457L31.0678 20.5826V20.1943H30.6752H29.5954C29.4973 20.1943 29.4973 20.0972 29.4973 20.0972V18.9322V18.4467H28.9083H26.6507C26.5525 18.4467 26.5525 18.3496 26.5525 18.3496C26.5525 18.2525 26.6507 18.2525 26.6507 18.2525H28.9083H29.3991V17.7671V16.505C29.3991 16.4079 29.4973 16.4079 29.4973 16.4079H30.1844H30.6752V15.9224L30.2825 11.7477V11.3593H29.8899H28.8102C28.712 11.3593 28.712 11.2623 28.712 11.2623V7.76711C28.712 7.67002 28.8102 7.67002 28.8102 7.67002H29.4973H29.9881V7.18458L29.3991 1.26225V0.873901H29.0065H12.4178H12.0252V1.26225L11.4363 7.18458L11.3381 7.57293ZM12.4178 1.16516H28.712L29.301 7.08749H28.6139C28.3194 7.08749 28.0249 7.37876 28.0249 7.67002V11.1652C28.0249 11.4564 28.3194 11.7477 28.6139 11.7477H29.6936L30.0862 15.9224H29.3991C29.1046 15.9224 28.8102 16.2137 28.8102 16.505V17.67H26.5525C26.2581 17.67 25.9636 17.9613 25.9636 18.2525C25.9636 18.5438 26.2581 18.8351 26.5525 18.8351H28.9083V20.0001C28.9083 20.2914 29.2028 20.5826 29.4973 20.5826H30.577L30.9696 25.1457H21.1539V20.5826H22.0373C22.3318 20.5826 22.6262 20.2914 22.6262 20.0001V18.8351H24.0004C24.2949 18.8351 24.5894 18.5438 24.5894 18.2525C24.5894 17.9613 24.2949 17.67 24.0004 17.67H22.6262V16.505C22.6262 16.2137 22.3318 15.9224 22.0373 15.9224H19.0926C18.7981 15.9224 18.5036 16.2137 18.5036 16.505V17.67H17.1294C16.8349 17.67 16.5405 17.9613 16.5405 18.2525C16.5405 18.5438 16.8349 18.8351 17.1294 18.8351H18.5036V20.0001C18.5036 20.2914 18.7981 20.5826 19.0926 20.5826H19.976V25.1457H10.1602L10.5528 20.5826H11.6326C11.927 20.5826 12.2215 20.2914 12.2215 20.0001V18.8351H14.4791C14.7736 18.8351 15.0681 18.5438 15.0681 18.2525C15.0681 17.9613 14.7736 17.67 14.4791 17.67H12.2215V16.505C12.2215 16.2137 11.927 15.9224 11.6326 15.9224H10.9455L11.3381 11.7477H12.4178C12.7123 11.7477 13.0068 11.4564 13.0068 11.1652V10.0001H14.9699C15.2644 10.0001 15.5589 9.70885 15.5589 9.41759C15.5589 9.12633 15.2644 8.83507 14.9699 8.83507H13.0068V7.67002C13.0068 7.37876 12.7123 7.08749 12.4178 7.08749H11.7307L12.4178 1.16516Z" fill="white" fill-opacity="0.85"/>
<path d="M29.5957 16.6991V17.1845V19.4176V19.903H30.0865H31.8533H32.3441V19.4176V17.0875V16.602H31.8533H30.0865H29.5957V16.6991ZM31.8533 19.4176H30.0865V17.0875H31.8533V19.4176Z" fill="white" fill-opacity="0.85"/>
<path d="M15.1661 29.903H14.6753L14.7735 30.3885C15.0679 33.3011 17.62 35.5341 20.5648 35.5341C23.5095 35.5341 26.0616 33.3011 26.3561 30.3885L26.4542 29.903H25.9634H15.1661ZM20.5648 35.0486C17.8163 35.0486 15.5587 33.0098 15.2642 30.2914H25.9634C25.5708 33.0098 23.3132 35.0486 20.5648 35.0486Z" fill="white" fill-opacity="0.85"/>
<path d="M40.2944 21.8447C40.2944 21.7476 40.2944 21.6505 40.1963 21.1651L39.8036 18.7379V18.4467H39.411H35.7792C35.681 18.4467 35.681 18.3496 35.681 18.3496C35.681 18.2525 35.7792 18.2525 35.7792 18.2525H39.2147H39.7055V17.67L37.7423 3.5923C37.546 1.94181 36.0736 0.776764 34.405 0.776764H29.8897H29.3989V1.2622L29.9879 7.18453V7.57288H30.3805H31.4602C31.5584 7.57288 31.5584 7.66997 31.5584 7.66997V8.83502V9.32045H32.0492H35.0921C35.1902 9.32045 35.1902 9.41754 35.1902 9.41754C35.1902 9.51463 35.0921 9.51463 35.0921 9.51463H32.0492H31.5584V10.0001V11.1651C31.5584 11.2622 31.4602 11.2622 31.4602 11.2622H30.8713H30.3805V11.7476L30.7731 15.9224V16.3107H31.1658H32.3437C32.4418 16.3107 32.4418 16.4078 32.4418 16.4078V19.903C32.4418 20.0001 32.3437 20.0001 32.3437 20.0001H31.6566H31.1658V20.4855L31.5584 25.0486V25.437H31.951H35.7792H36.9571C37.9386 25.437 38.8221 25.0486 39.5092 24.2719C40.1963 23.7865 40.4907 22.8156 40.2944 21.8447ZM39.2147 24.1748C38.6257 24.7573 37.8405 25.1457 37.0552 25.1457H35.7792H32.1473L31.7547 20.5826H32.4418C32.7363 20.5826 33.0308 20.2913 33.0308 20.0001V16.5049C33.0308 16.2137 32.7363 15.9224 32.4418 15.9224H31.2639L30.8713 11.7476H31.5584C31.8529 11.7476 32.1473 11.4564 32.1473 11.1651V10.0001H35.1902C35.4847 10.0001 35.7792 9.7088 35.7792 9.41754C35.7792 9.12628 35.4847 8.83502 35.1902 8.83502H32.1473V7.66997C32.1473 7.3787 31.8529 7.08744 31.5584 7.08744H30.4787L29.8897 1.16511H34.5031C35.9755 1.16511 37.1534 2.23307 37.3497 3.5923C37.3497 3.5923 38.5276 12.2331 39.3129 17.67H35.7792C35.4847 17.67 35.1902 17.9612 35.1902 18.2525C35.1902 18.5438 35.4847 18.835 35.7792 18.835H39.411C39.7055 20.6797 39.8036 21.9418 39.8036 21.9418C40 22.7185 39.8036 23.5923 39.2147 24.1748Z" fill="white" fill-opacity="0.85"/>
<path d="M5.84137 25.9224H5.35059V26.4078V27.6699C5.35059 28.7379 6.23401 29.6117 7.31374 29.6117H33.7182C34.7979 29.6117 35.6813 28.7379 35.6813 27.6699V26.4078V25.9224H35.1905H5.84137ZM35.1905 27.6699C35.1905 28.4466 34.5034 29.1262 33.7182 29.1262H7.4119C6.62664 29.1262 5.93953 28.4466 5.93953 27.6699V26.4078H35.2887V27.6699H35.1905Z" fill="white" fill-opacity="0.85"/>
<path d="M38.4297 3.49515C38.1352 1.5534 36.4665 0 34.4052 0H6.62659C4.66344 0 2.8966 1.45631 2.60213 3.49515L0.0500278 21.7476C-0.146288 22.9126 0.246343 24.0777 1.0316 24.9515C1.81687 25.8252 2.8966 26.3107 4.07449 26.3107H4.66344V27.5728C4.66344 29.0291 5.84133 30.1942 7.3137 30.1942H13.9884C14.1847 32.233 15.2645 33.9806 16.9331 35.0485V38.8349H10.1603C9.8658 38.8349 9.57132 39.1262 9.57132 39.4175C9.57132 39.7087 9.8658 40 10.1603 40H30.8715C31.166 40 31.4605 39.7087 31.4605 39.4175C31.4605 39.1262 31.166 38.8349 30.8715 38.8349H24.0987V35.0485C25.6692 33.9806 26.8471 32.233 27.0434 30.1942H33.7181C35.1905 30.1942 36.3684 29.0291 36.3684 27.5728V26.3107H36.9573C38.1352 26.3107 39.2149 25.8252 40.0002 24.9515C40.7855 24.0777 41.0799 22.9126 40.9818 21.7476L38.4297 3.49515ZM39.8039 24.6602C39.1168 25.4369 38.1352 25.9223 37.0555 25.9223H36.4665H35.9757V26.4078V27.6699C35.9757 28.932 34.9942 29.9029 33.7181 29.9029H27.0434H26.6508V30.2913C26.4544 32.1359 25.4729 33.7864 23.9023 34.7573L23.706 34.8544V35.0485V38.8349V39.3204H24.1968H30.8715C30.9697 39.3204 30.9697 39.4175 30.9697 39.4175C30.9697 39.5146 30.8715 39.5146 30.8715 39.5146H10.1603C10.0621 39.5146 10.0621 39.4175 10.0621 39.4175C10.0621 39.3204 10.1603 39.3204 10.1603 39.3204H16.9331H17.4239V38.8349V35.0485V34.8544L17.1295 34.7573C15.5589 33.6893 14.5774 32.1359 14.3811 30.2913V29.9029H13.9884H7.3137C6.03765 29.9029 5.05607 28.932 5.05607 27.6699V26.4078V25.9223H4.56528H3.97634C2.8966 25.9223 1.91502 25.4369 1.22792 24.6602C0.540816 23.8835 0.246342 22.8155 0.3445 21.8447L2.8966 3.49515C3.19107 1.74757 4.66344 0.388349 6.43028 0.388349H34.2089C35.9757 0.388349 37.5463 1.74757 37.7426 3.49515L40.2947 21.8447C40.7855 22.9126 40.491 23.8835 39.8039 24.6602Z" fill="white" fill-opacity="0.85"/>
<path d="M11.5345 19.903V19.4176V17.0875V16.602H11.0438H9.27692H8.78613V17.0875V19.4176V19.903H9.27692H11.0438H11.5345ZM9.27692 17.0875H11.0438V19.4176H9.27692V17.0875Z" fill="white" fill-opacity="0.85"/>
<path d="M20.5653 35.8253C19.7801 35.8253 18.9948 35.6311 18.3077 35.3398L17.7188 35.0486V35.7282V38.932V39.4175H18.1114H23.0193H23.5101V38.932V35.7282V35.0486L22.9211 35.3398C22.1358 35.6311 21.3506 35.8253 20.5653 35.8253ZM23.0193 38.932H18.1114V35.7282C18.8966 36.0194 19.6819 36.2136 20.5653 36.2136C21.4487 36.2136 22.234 36.0194 23.0193 35.7282V38.932Z" fill="white" fill-opacity="0.85"/>
<path d="M12.4179 11.068V10.5826V8.25247V7.76703H11.9271H10.1602H9.66943V8.25247V10.5826V11.068H10.1602H11.9271H12.4179ZM10.1602 8.25247H11.9271V10.5826H10.1602V8.25247Z" fill="white" fill-opacity="0.85"/>
<path d="M9.37523 25.6312V25.2428L9.76786 20.6797V20.1943H9.27707H8.58997C8.49181 20.1943 8.49181 20.0972 8.49181 20.0972V16.505C8.49181 16.4079 8.58997 16.4079 8.58997 16.4079H9.76786H10.2586V16.0195L10.6513 11.8448V11.3593H10.2586H9.57154C9.47338 11.3593 9.47339 11.2623 9.47339 11.2623V10.0972V9.61177H8.9826H5.93971C5.84155 9.61177 5.84155 9.51468 5.84155 9.51468C5.84155 9.41759 5.93971 9.41759 5.93971 9.41759H8.9826H9.47339V8.93216V7.76711C9.47339 7.67002 9.57154 7.67002 9.57154 7.67002H10.6513H11.0439V7.28167L11.6329 1.35934V0.873901H11.2402H6.62681C4.95813 0.873901 3.58392 2.13604 3.28945 3.68944L1.3263 17.7671L1.22814 18.2525H1.71893H5.15445C5.2526 18.2525 5.2526 18.3496 5.2526 18.3496C5.2526 18.4467 5.15445 18.4467 5.15445 18.4467H1.52261H1.22814L1.12998 18.8351L0.737351 21.9419C0.639193 22.9127 0.933666 23.8836 1.52261 24.5632C2.11156 25.2428 3.09314 25.7283 4.07471 25.7283H5.2526H8.88444H9.37523V25.6312ZM4.07471 25.1457C3.28945 25.1457 2.40603 24.7574 1.91524 24.1749C1.3263 23.5924 1.12998 22.7186 1.22814 21.9419L1.62077 18.8351H5.2526C5.54708 18.8351 5.84155 18.5438 5.84155 18.2525C5.84155 17.9613 5.54708 17.67 5.2526 17.67H1.81708L3.78024 3.59235C3.97655 2.23312 5.15445 1.16516 6.62681 1.16516H11.2402L10.6513 7.08749H9.57154C9.27707 7.08749 8.9826 7.37876 8.9826 7.67002V8.83507H5.93971C5.64524 8.83507 5.35076 9.12633 5.35076 9.41759C5.35076 9.70885 5.64524 10.0001 5.93971 10.0001H8.9826V11.1652C8.9826 11.4564 9.27707 11.7477 9.57154 11.7477H10.2586L9.86602 15.9224H8.68812C8.39365 15.9224 8.09918 16.2137 8.09918 16.505V20.0001C8.09918 20.2914 8.39365 20.5826 8.68812 20.5826H9.37523L8.9826 25.1457H5.35076H4.07471Z" fill="white" fill-opacity="0.85"/>
<path d="M12.516 7.2816C12.7123 7.2816 12.9086 7.47577 12.9086 7.66994V8.83499V9.02917H13.1049H15.0681C15.2644 9.02917 15.4607 9.22334 15.4607 9.41752C15.4607 9.61169 15.2644 9.80587 15.0681 9.80587H13.1049H12.9086V10V11.1651C12.9086 11.3593 12.7123 11.5534 12.516 11.5534H11.4362H11.2399V11.7476L10.8473 15.9224V16.1165H11.0436H11.7307C11.927 16.1165 12.1233 16.3107 12.1233 16.5049V17.6699V17.8641H12.2215H14.4791C14.6754 17.8641 14.8718 18.0583 14.8718 18.2525C14.8718 18.4466 14.6754 18.6408 14.4791 18.6408H12.2215H12.0252V18.835V20C12.0252 20.1942 11.8289 20.3884 11.6325 20.3884H10.5528H10.3565V20.5826L9.96387 25.1457V25.3398H10.1602H19.976H20.1723V25.1457V20.5826V20.3884H19.976H19.0925C18.8962 20.3884 18.6999 20.1942 18.6999 20V18.835V18.6408H18.5036H17.1294C16.9331 18.6408 16.7367 18.4466 16.7367 18.2525C16.7367 18.0583 16.9331 17.8641 17.1294 17.8641H18.5036H18.6999V17.6699V16.5049C18.6999 16.3107 18.8962 16.1165 19.0925 16.1165H22.0373C22.2336 16.1165 22.4299 16.3107 22.4299 16.5049V17.6699V17.8641H22.6262H24.0004C24.1967 17.8641 24.393 18.0583 24.393 18.2525C24.393 18.4466 24.1967 18.6408 24.0004 18.6408H22.6262H22.4299V18.835V20C22.4299 20.1942 22.2336 20.3884 22.0373 20.3884H21.1538H20.9575V20.5826V25.1457V25.3398H21.1538H30.9696H31.1659V25.1457L30.7733 20.5826V20.3884H30.577H29.4972C29.3009 20.3884 29.1046 20.1942 29.1046 20V18.835V18.6408H28.9083H26.6507C26.4544 18.6408 26.258 18.4466 26.258 18.2525C26.258 18.0583 26.4544 17.8641 26.6507 17.8641H28.9083H29.1046V17.6699V16.5049C29.1046 16.3107 29.3009 16.1165 29.4972 16.1165H30.1844H30.3807V15.9224L29.8899 11.7476V11.5534H29.6936H28.6138C28.4175 11.5534 28.2212 11.3593 28.2212 11.1651V7.66994C28.2212 7.47577 28.4175 7.2816 28.6138 7.2816H29.3009H29.4972V7.08742L28.9083 1.16509V0.970917H28.712H12.4178H12.2215V1.16509L11.6325 7.08742V7.2816H11.8289H12.516ZM12.4178 1.16509H28.712L29.3009 7.08742H28.6138C28.3194 7.08742 28.0249 7.37868 28.0249 7.66994V11.1651C28.0249 11.4564 28.3194 11.7476 28.6138 11.7476H29.6936L30.0862 15.9224H29.3991C29.1046 15.9224 28.8101 16.2136 28.8101 16.5049V17.6699H26.5525C26.258 17.6699 25.9636 17.9612 25.9636 18.2525C25.9636 18.5437 26.258 18.835 26.5525 18.835H28.9083V20C28.9083 20.2913 29.2028 20.5826 29.4972 20.5826H30.577L30.9696 25.1457H21.1538V20.5826H22.0373C22.3317 20.5826 22.6262 20.2913 22.6262 20V18.835H24.0004C24.2949 18.835 24.5894 18.5437 24.5894 18.2525C24.5894 17.9612 24.2949 17.6699 24.0004 17.6699H22.6262V16.5049C22.6262 16.2136 22.3317 15.9224 22.0373 15.9224H19.0925C18.7981 15.9224 18.5036 16.2136 18.5036 16.5049V17.6699H17.1294C16.8349 17.6699 16.5404 17.9612 16.5404 18.2525C16.5404 18.5437 16.8349 18.835 17.1294 18.835H18.5036V20C18.5036 20.2913 18.7981 20.5826 19.0925 20.5826H19.976V25.1457H10.1602L10.5528 20.5826H11.6325C11.927 20.5826 12.2215 20.2913 12.2215 20V18.835H14.4791C14.7736 18.835 15.0681 18.5437 15.0681 18.2525C15.0681 17.9612 14.7736 17.6699 14.4791 17.6699H12.2215V16.5049C12.2215 16.2136 11.927 15.9224 11.6325 15.9224H10.9454L11.3381 11.7476H12.4178C12.7123 11.7476 13.0068 11.4564 13.0068 11.1651V10H14.9699C15.2644 10 15.5589 9.70878 15.5589 9.41752C15.5589 9.12626 15.2644 8.83499 14.9699 8.83499H13.0068V7.66994C13.0068 7.37868 12.7123 7.08742 12.4178 7.08742H11.7307L12.4178 1.16509Z" fill="white" fill-opacity="0.85"/>
<path d="M21.6448 19.7088V19.4175V17.0874V16.8932H21.4485H19.6817H19.4854V17.0874V19.4175V19.6117H19.6817H21.4485H21.6448V19.7088ZM19.6817 17.0874H21.4485V19.4175H19.6817V17.0874Z" fill="white" fill-opacity="0.85"/>
<path d="M28.9082 8.05838V8.25256V10.5827V10.7768H29.1045H30.8714H31.0677V10.5827V8.25256V8.05838H30.8714H29.1045H28.9082ZM30.9695 10.5827H29.2027V8.25256H30.9695V10.5827Z" fill="white" fill-opacity="0.85"/>
<path d="M29.792 16.8932V17.0874V19.4175V19.6117H29.9883H31.8533H32.0496V19.4175V17.0874V16.8932H31.8533H30.0865H29.792ZM31.8533 19.4175H30.0865V17.0874H31.8533V19.4175Z" fill="white" fill-opacity="0.85"/>
<path d="M11.24 19.7088V19.4175V17.0874V16.8932H11.0437H9.27688H9.08057V17.0874V19.4175V19.6117H9.27688H11.0437H11.24V19.7088ZM9.27688 17.0874H11.0437V19.4175H9.27688V17.0874Z" fill="white" fill-opacity="0.85"/>
<path d="M40.0981 21.9419C40.0981 21.8448 40.0981 21.7477 39.9999 21.2623L39.7054 18.8351V18.6409H39.5091H35.7791C35.5828 18.6409 35.3865 18.4467 35.3865 18.2525C35.3865 18.0584 35.5828 17.8642 35.7791 17.8642H39.2147H39.5091V17.5729L37.546 3.49526C37.3497 1.94186 35.9755 0.873901 34.5031 0.873901H29.8897H29.6934V1.06808L30.2823 6.99041V7.18458H30.4786H31.5584C31.7547 7.18458 31.951 7.37876 31.951 7.57293V8.73798V8.93215H32.1473H35.1902C35.3865 8.93215 35.5828 9.12633 35.5828 9.3205C35.5828 9.51468 35.3865 9.70885 35.1902 9.70885H32.1473H31.951V9.90303V11.0681C31.951 11.2623 31.7547 11.4564 31.5584 11.4564H30.8713H30.6749V11.6506L31.0676 15.8254V16.0195H31.2639H32.4418C32.6381 16.0195 32.8344 16.2137 32.8344 16.4079V19.903C32.8344 20.0972 32.6381 20.2914 32.4418 20.2914H31.7547H31.5584V20.4856L31.951 25.0487V25.2428H32.1473H35.7791H36.957C37.8404 25.2428 38.7239 24.8545 39.3128 24.1749C39.9999 23.6894 40.1962 22.8156 40.0981 21.9419ZM39.2147 24.1749C38.6257 24.7574 37.8404 25.1457 37.0552 25.1457H35.7791H32.1473L31.7547 20.5826H32.4418C32.7362 20.5826 33.0307 20.2914 33.0307 20.0001V16.505C33.0307 16.2137 32.7362 15.9224 32.4418 15.9224H31.2639L30.8713 11.7477H31.5584C31.8528 11.7477 32.1473 11.4564 32.1473 11.1652V10.0001H35.1902C35.4847 10.0001 35.7791 9.70885 35.7791 9.41759C35.7791 9.12633 35.4847 8.83507 35.1902 8.83507H32.1473V7.67002C32.1473 7.37876 31.8528 7.08749 31.5584 7.08749H30.4786L29.8897 1.16516H34.5031C35.9755 1.16516 37.1533 2.23312 37.3497 3.59235C37.3497 3.59235 38.5276 12.2331 39.3128 17.67H35.7791C35.4847 17.67 35.1902 17.9613 35.1902 18.2525C35.1902 18.5438 35.4847 18.8351 35.7791 18.8351H39.411C39.7054 20.6797 39.8036 21.9419 39.8036 21.9419C39.9999 22.7186 39.8036 23.5924 39.2147 24.1749Z" fill="white" fill-opacity="0.85"/>
<path d="M5.84133 26.1166H5.64502V26.3107V27.5729C5.64502 28.5438 6.43028 29.3205 7.41186 29.3205H33.8163C34.7979 29.3205 35.5831 28.5438 35.5831 27.5729V26.3107V26.1166H35.3868H5.84133ZM35.1905 27.67C35.1905 28.4467 34.5034 29.1263 33.7181 29.1263H7.41186C6.6266 29.1263 5.93949 28.4467 5.93949 27.67V26.4078H35.2886V27.67H35.1905Z" fill="white" fill-opacity="0.85"/>
<path d="M38.4297 3.49515C38.1352 1.5534 36.4665 0 34.4052 0H6.62659C4.66344 0 2.8966 1.45631 2.60213 3.49515L0.0500278 21.7476C-0.146288 22.9126 0.246343 24.0777 1.0316 24.9515C1.81687 25.8252 2.8966 26.3107 4.07449 26.3107H4.66344V27.5728C4.66344 29.0291 5.84133 30.1942 7.3137 30.1942H13.9884C14.1847 32.233 15.2645 33.9806 16.9331 35.0485V38.8349H10.1603C9.8658 38.8349 9.57132 39.1262 9.57132 39.4175C9.57132 39.7087 9.8658 40 10.1603 40H30.8715C31.166 40 31.4605 39.7087 31.4605 39.4175C31.4605 39.1262 31.166 38.8349 30.8715 38.8349H24.0987V35.0485C25.6692 33.9806 26.8471 32.233 27.0434 30.1942H33.7181C35.1905 30.1942 36.3684 29.0291 36.3684 27.5728V26.3107H36.9573C38.1352 26.3107 39.2149 25.8252 40.0002 24.9515C40.7855 24.0777 41.0799 22.9126 40.9818 21.7476L38.4297 3.49515ZM39.9021 24.8544C39.2149 25.7282 38.1352 26.1165 37.0555 26.1165H36.4665H36.2702V26.3107V27.5728C36.2702 28.932 35.1905 30 33.8163 30H27.1416H26.9452V30.1942C26.7489 32.1359 25.7673 33.7864 24.0987 34.8544L24.0005 34.9515V35.0485V38.8349V39.0291H24.1968H30.8715C31.0679 39.0291 31.2642 39.2233 31.2642 39.4175C31.2642 39.6116 31.0679 39.8058 30.8715 39.8058H10.1603C9.96395 39.8058 9.76764 39.6116 9.76764 39.4175C9.76764 39.2233 9.96395 39.0291 10.1603 39.0291H16.9331H17.1295V38.8349V35.0485V34.9515H17.0313C15.4608 33.8835 14.3811 32.233 14.1847 30.2913V30.0971H13.9884H7.3137C5.93949 30.0971 4.85975 29.0291 4.85975 27.6699V26.4078V26.2136H4.66344H4.07449C2.99476 26.2136 1.91502 25.7282 1.22792 24.9515C0.540816 24.0777 0.148185 23.0097 0.3445 21.9417L2.8966 3.59223C3.19107 1.74757 4.7616 0.291262 6.72475 0.291262H34.5034C36.3684 0.291262 38.0371 1.65049 38.3315 3.59223L40.8836 21.9417C40.9818 22.9126 40.6873 23.9806 39.9021 24.8544Z" fill="white" fill-opacity="0.85"/>
<path d="M12.1233 10.7768V10.5827V8.25256V8.05838H11.927H10.1602H9.96387V8.25256V10.5827V10.7768H10.1602H11.927H12.1233ZM10.1602 8.25256H11.927V10.5827H10.1602V8.25256Z" fill="white" fill-opacity="0.85"/>
<path d="M15.1661 30.0972H14.8716V30.3884C15.1661 33.204 17.62 35.3399 20.4666 35.3399C23.3131 35.3399 25.7671 33.204 26.0616 30.3884V30.0972H25.7671H15.1661ZM20.5647 35.0486C17.8163 35.0486 15.5587 33.0098 15.2642 30.2913H25.9634C25.5708 33.0098 23.3131 35.0486 20.5647 35.0486Z" fill="white" fill-opacity="0.85"/>
<path d="M9.17851 25.4369V25.2428L9.57115 20.6797V20.4855H9.37483H8.68773C8.49141 20.4855 8.2951 20.2913 8.2951 20.0971V16.5049C8.2951 16.3107 8.49141 16.1165 8.68773 16.1165H9.86562H10.0619V15.9224L10.4546 11.7476V11.5534H10.2582H9.57115C9.37483 11.5534 9.17851 11.3593 9.17851 11.1651V10V9.80587H8.9822H5.93931C5.743 9.80587 5.54668 9.61169 5.54668 9.41752C5.54668 9.22334 5.743 9.02917 5.93931 9.02917H8.9822H9.17851V8.83499V7.66994C9.17851 7.47577 9.37483 7.2816 9.57115 7.2816H10.6509H10.8472V7.08742L11.4361 1.16509V0.970917H11.2398H6.62642C5.05589 0.970917 3.77984 2.13596 3.58353 3.59228L1.62037 17.6699V17.9612H1.91485H5.35037C5.54668 17.9612 5.743 18.1554 5.743 18.3496C5.743 18.5437 5.54668 18.7379 5.35037 18.7379H1.71853H1.42406V18.9321L1.03143 22.0389C0.933269 22.9127 1.12958 23.7864 1.71853 24.4661C2.30748 25.1457 3.1909 25.534 4.07432 25.534H5.25221H8.88404H9.17851V25.4369ZM4.07432 25.1457C3.28905 25.1457 2.40563 24.7573 1.91485 24.1748C1.3259 23.5923 1.12958 22.7185 1.22774 21.9418L1.62037 18.835H5.25221C5.54668 18.835 5.84115 18.5437 5.84115 18.2525C5.84115 17.9612 5.54668 17.6699 5.25221 17.6699H1.81669L3.77984 3.59228C3.97616 2.23305 5.15405 1.16509 6.62642 1.16509H11.2398L10.6509 7.08742H9.57115C9.27667 7.08742 8.9822 7.37868 8.9822 7.66994V8.83499H5.93931C5.64484 8.83499 5.35037 9.12626 5.35037 9.41752C5.35037 9.70878 5.64484 10 5.93931 10H8.9822V11.1651C8.9822 11.4564 9.27667 11.7476 9.57115 11.7476H10.2582L9.86562 15.9224H8.68773C8.39325 15.9224 8.09878 16.2136 8.09878 16.5049V20C8.09878 20.2913 8.39325 20.5826 8.68773 20.5826H9.37483L8.9822 25.1457H5.35037H4.07432Z" fill="white" fill-opacity="0.85"/>
<path d="M20.5648 36.0195C19.7795 36.0195 18.9943 35.8253 18.209 35.5341L17.9146 35.437V35.7282V38.9321V39.1263H18.1109H23.0188H23.2151V38.9321V35.7282V35.437L22.9206 35.5341C22.1353 35.8253 21.3501 36.0195 20.5648 36.0195ZM23.0188 38.9321H18.1109V35.7282C18.8961 36.0195 19.6814 36.2137 20.5648 36.2137C21.4482 36.2137 22.2335 36.0195 23.0188 35.7282V38.9321Z" fill="white" fill-opacity="0.85"/>
</svg>
