<svg width="20" height="21" viewBox="0 0 20 21" fill="none" xmlns="http://www.w3.org/2000/svg">
<g clip-path="url(#clip0_28_2565)">
<path d="M17.5 8.70288C17.5 14.5362 10 19.5362 10 19.5362C10 19.5362 2.5 14.5362 2.5 8.70288C2.5 6.71376 3.29018 4.8061 4.6967 3.39958C6.10322 1.99306 8.01088 1.20288 10 1.20288C11.9891 1.20288 13.8968 1.99306 15.3033 3.39958C16.7098 4.8061 17.5 6.71376 17.5 8.70288Z" stroke="#F2653D" stroke-width="2" stroke-linecap="round" stroke-linejoin="round"/>
<path d="M10 11.2029C11.3807 11.2029 12.5 10.0836 12.5 8.70288C12.5 7.32217 11.3807 6.20288 10 6.20288C8.61929 6.20288 7.5 7.32217 7.5 8.70288C7.5 10.0836 8.61929 11.2029 10 11.2029Z" stroke="#F2653D" stroke-width="2" stroke-linecap="round" stroke-linejoin="round"/>
</g>
<defs>
<clipPath id="clip0_28_2565">
<rect width="20" height="20" fill="white" transform="translate(0 0.369629)"/>
</clipPath>
</defs>
</svg>
