<svg width="41" height="40" viewBox="0 0 41 40" fill="none" xmlns="http://www.w3.org/2000/svg">
<path d="M27.042 39.8845C26.8253 39.8845 26.6807 39.8123 26.5362 39.6678L20.3223 34.5377L14.1084 39.8123C13.8917 40.029 13.5304 40.029 13.3136 39.9568C13.0246 39.8845 12.8079 39.5955 12.8079 39.3065L11.3628 31.3585H3.27025C2.98123 31.3585 2.69222 31.214 2.54771 30.925C2.4032 30.6359 2.4032 30.3469 2.54771 30.0579L6.52171 23.0492L0.307815 17.8469C0.0910512 17.6301 -0.0534591 17.3411 0.0187955 17.0521C0.0910501 16.7631 0.307814 16.5463 0.524578 16.4018L8.18356 13.5839L6.88298 5.63586C6.81073 5.34684 6.95524 5.05782 7.172 4.84106C7.38876 4.62429 7.75004 4.62429 7.9668 4.69655L15.5535 7.44222L19.5275 0.433526C19.672 0.144508 19.9611 0 20.2501 0C20.5391 0 20.8281 0.144508 20.9726 0.433526L24.9466 7.44222L32.5334 4.69655C32.8224 4.62429 33.1114 4.62429 33.3282 4.84106C33.5449 5.05782 33.6894 5.34684 33.6172 5.63586L32.2443 13.5839L39.8311 16.3295C40.1201 16.4018 40.3369 16.6908 40.3369 16.9798C40.4091 17.2688 40.2646 17.5579 40.0478 17.7746L33.9062 22.977L37.8802 29.9857C38.0247 30.2747 38.0247 30.5637 37.8802 30.8527C37.7357 31.1417 37.4467 31.2862 37.1577 31.2862H29.2819L27.9091 39.2342C27.8368 39.5233 27.6201 39.74 27.4033 39.8845C27.2588 39.8845 27.1865 39.8845 27.042 39.8845ZM20.3223 32.5868C20.5391 32.5868 20.6836 32.6591 20.8281 32.8036L26.464 37.5724L27.6923 30.3469C27.7646 29.9134 28.1258 29.6244 28.4871 29.6244H35.7848L32.1721 23.266C31.9553 22.9047 32.0276 22.4712 32.3889 22.1822L38.0247 17.4134L31.0883 15.029C30.727 14.8844 30.5102 14.5232 30.5825 14.0896L31.8108 6.86419L24.9466 9.32084C24.5854 9.46535 24.1518 9.32084 23.9351 8.95957L20.3223 2.60116L16.7096 8.95957C16.4928 9.32084 16.0593 9.46535 15.698 9.32084L8.83386 6.86419L10.1344 14.0896C10.2067 14.5232 9.98993 14.8844 9.62866 15.029L2.61996 17.4856L8.25582 22.2544C8.54484 22.5434 8.61709 22.977 8.47258 23.3382L4.85985 29.6966H12.1576C12.5911 29.6966 12.8801 29.9857 12.9524 30.4192L14.253 37.6446L19.8888 32.8758C19.9611 32.7313 20.1056 32.5868 20.3223 32.5868Z" fill="#EB742E"/>
<path d="M20.3223 30.4916C14.9754 30.4916 10.6401 26.1563 10.6401 20.8094C10.6401 15.4626 14.9754 11.1273 20.3223 11.1273C25.6691 11.1273 30.0044 15.4626 30.0044 20.8094C30.0044 26.1563 25.6691 30.4916 20.3223 30.4916ZM20.3223 12.7169C15.9147 12.7169 12.302 16.2574 12.302 20.7372C12.302 25.217 15.8425 28.7574 20.3223 28.7574C24.802 28.7574 28.3425 25.217 28.3425 20.7372C28.3425 16.4019 24.802 12.7169 20.3223 12.7169Z" fill="#EB742E"/>
<path d="M18.9495 27.0966C18.7327 27.0966 18.5882 27.0243 18.4437 26.8798C18.0824 26.5908 18.0101 26.085 18.3714 25.7237L21.4061 22.111H18.1547C17.8656 22.111 17.5766 21.9665 17.4321 21.6775C17.2876 21.3884 17.2876 21.0994 17.4321 20.8104L20.7558 14.8855C20.9726 14.452 21.4784 14.3798 21.9119 14.5965C22.3454 14.8133 22.4177 15.3191 22.2009 15.7526L19.5998 20.4491H23.2125C23.5015 20.4491 23.8628 20.6659 23.935 20.9549C24.0795 21.2439 24.0073 21.6052 23.7905 21.822L19.5998 26.8798C19.4552 27.0243 19.2385 27.0966 18.9495 27.0966Z" fill="#EB742E"/>
<path d="M22.3456 19.5088C22.1288 19.5088 21.9121 19.4365 21.7675 19.292C21.623 19.1475 21.5508 18.9308 21.5508 18.714C21.5508 18.4972 21.623 18.2805 21.7675 18.136C21.9121 17.9914 22.1288 17.9192 22.3456 17.9192C22.5623 17.9192 22.7791 17.9914 22.9236 18.136C23.0681 18.2805 23.1404 18.4972 23.1404 18.714C23.1404 18.9308 23.0681 19.1475 22.9236 19.292C22.7791 19.4365 22.5623 19.5088 22.3456 19.5088Z" fill="#EB742E"/>
<path d="M18.1542 24.6387C17.9374 24.6387 17.7206 24.5664 17.5761 24.4219C17.4316 24.2774 17.3594 24.0606 17.3594 23.8439C17.3594 23.6271 17.4316 23.4103 17.5761 23.2658C17.7206 23.1213 17.9374 23.0491 18.1542 23.0491C18.3709 23.0491 18.5877 23.1213 18.7322 23.2658C18.8767 23.4103 18.949 23.6271 18.949 23.8439C18.949 24.0606 18.8767 24.2774 18.7322 24.4219C18.5877 24.4942 18.3709 24.6387 18.1542 24.6387Z" fill="#EB742E"/>
</svg>
