<svg width="40" height="40" viewBox="0 0 40 40" fill="none" xmlns="http://www.w3.org/2000/svg">
<path d="M30.8486 28.0914C30.7025 28.0914 30.5564 28.0184 30.4103 27.9453C30.045 27.6531 29.8989 27.1416 30.1911 26.7763C30.2642 26.7033 30.2642 26.6302 30.3372 26.5572C30.7025 25.9727 31.4331 24.8768 32.0176 23.7809C32.8943 22.0275 32.6751 21.443 32.6751 21.3699C32.6751 21.2969 32.6021 21.2238 32.3098 21.1508C31.8715 21.0777 31.5062 20.6394 31.6523 20.201C31.7984 19.7626 32.1637 19.3973 32.6021 19.5435C33.6249 19.6896 34.0633 20.2741 34.2824 20.7124C35.013 22.3928 33.3327 25.3152 31.7984 27.6531C31.7254 27.7261 31.7254 27.7992 31.6523 27.8722C31.4331 27.9453 31.1409 28.0914 30.8486 28.0914Z" fill="#F2653D"/>
<path d="M34.2088 34.9589H25.6609C25.2225 34.9589 24.8572 34.6667 24.7842 34.2283C24.7111 33.4247 24.7842 30.5753 24.8572 29.9909C25.0033 28.6027 26.0262 26.0457 27.2682 23.9269C28.3641 22.0274 30.1175 19.6895 32.0901 19.5434C31.4326 17.4246 31.1403 14.9406 31.4326 13.1141C31.6517 11.8721 32.7476 10.0457 34.3549 10.0457C34.5741 10.0457 34.7202 10.0457 34.9394 10.1187C36.2545 10.484 37.4234 12.6758 38.3732 16.7671C39.0307 19.5434 39.5422 23.1233 39.1038 24.7306C38.5924 26.7032 37.7157 27.8721 36.912 28.968C35.9622 30.2831 35.0855 31.452 35.0855 34.1552C35.0125 34.5936 34.6472 34.9589 34.2088 34.9589ZM26.4645 33.2785H33.3321C33.5513 30.6484 34.5741 29.2603 35.5239 27.9452C36.3275 26.9224 36.9851 25.9726 37.4234 24.3653C37.7157 23.2694 37.4234 20.274 36.6928 17.2785C35.8161 13.4794 34.7933 11.8721 34.428 11.7991C34.3549 11.7991 34.3549 11.7991 34.2819 11.7991C33.7705 11.7991 33.186 12.7489 33.0399 13.4794C32.7476 15.2329 33.3321 18.5205 34.0627 20.347C34.2088 20.7123 34.0627 21.1507 33.7705 21.3699C33.4782 21.589 33.0399 21.589 32.7476 21.2968C32.7476 21.2968 32.6015 21.2237 32.3823 21.1507C32.3093 21.1507 32.3093 21.1507 32.2362 21.1507C31.5056 21.1507 30.2636 22.1005 28.7294 24.7306C27.5604 26.7762 26.6837 29.1141 26.5376 30.21C26.5376 30.5023 26.4645 32.1096 26.4645 33.2785Z" fill="#F2653D"/>
<path d="M35.8894 40H24.7844C24.3461 40 23.9077 39.6347 23.9077 39.1233V34.0092C23.9077 33.5708 24.273 33.1324 24.7844 33.1324H35.8894C36.3278 33.1324 36.7662 33.4977 36.7662 34.0092V39.1233C36.7662 39.6347 36.3278 40 35.8894 40ZM25.6611 38.3197H35.0127V34.9589H25.6611V38.3197Z" fill="#F2653D"/>
<path d="M27.3417 37.443C27.1226 37.443 26.9034 37.3699 26.7573 37.2238C26.6111 37.0777 26.5381 36.8585 26.5381 36.6393C26.5381 36.4202 26.6111 36.201 26.7573 36.0549C26.9034 35.9088 27.1226 35.8357 27.3417 35.8357C27.5609 35.8357 27.7801 35.9088 27.9262 36.0549C28.0723 36.201 28.1454 36.4202 28.1454 36.6393C28.1454 36.8585 28.0723 37.0777 27.9262 37.2238C27.7801 37.3699 27.5609 37.443 27.3417 37.443Z" fill="#F2653D"/>
<path d="M8.49203 28.0914C8.19979 28.0914 7.98062 27.9452 7.76144 27.7261C7.68838 27.653 7.68838 27.5799 7.61532 27.5069C6.08107 25.242 4.40071 22.3197 5.1313 20.5662C5.35048 20.1279 5.78884 19.5434 6.81167 19.3973C7.25002 19.3242 7.68838 19.6165 7.76144 20.0548C7.8345 20.4932 7.54226 20.9315 7.1039 21.0046C6.81167 21.0777 6.73861 21.1507 6.73861 21.2238C6.66555 21.2968 6.51943 21.9544 7.39614 23.6347C7.98062 24.7306 8.63815 25.8265 9.07651 26.411C9.14957 26.4841 9.22262 26.5571 9.22262 26.6302C9.51486 26.9955 9.36874 27.5799 9.00345 27.7991C8.78427 28.0183 8.63815 28.0914 8.49203 28.0914Z" fill="#F2653D"/>
<path d="M13.6794 34.9589H5.13147C4.69311 34.9589 4.25475 34.5936 4.25475 34.1552C4.25475 31.5251 3.37804 30.3562 2.35521 28.968C1.55156 27.9452 0.674846 26.7762 0.163431 24.7306C-0.274926 23.1233 0.23649 19.5434 0.894024 16.7671C1.8438 12.7489 3.01274 10.484 4.32781 10.1187C4.54699 10.0457 4.69311 10.0457 4.91229 10.0457C6.5196 10.0457 7.61549 11.7991 7.83466 13.1141C8.1269 14.7945 7.83466 17.3516 7.25019 19.3973C9.14973 19.5434 10.9032 21.8813 12.0721 23.7808C13.2411 25.8265 14.2639 28.5297 14.4831 29.9178C14.5561 30.5023 14.6292 33.3516 14.5561 34.1552C14.4831 34.5936 14.1178 34.9589 13.6794 34.9589ZM6.08124 33.2785H12.9488C12.9488 32.2557 12.8758 30.5753 12.8758 30.21C12.7296 29.1872 11.926 26.9224 10.684 24.7306C9.14973 22.1005 7.90772 21.1507 7.17713 21.1507C7.10407 21.1507 7.10407 21.1507 7.03101 21.1507C6.81183 21.2237 6.66571 21.2968 6.66571 21.2968C6.37347 21.589 5.93512 21.589 5.64288 21.3699C5.35065 21.1507 5.20453 20.7123 5.35064 20.347C6.08124 18.4475 6.66571 15.2329 6.37348 13.4794C6.22736 12.7489 5.64288 11.7991 5.13147 11.7991C5.05841 11.7991 5.05841 11.7991 4.98535 11.7991C4.62005 11.9452 3.67028 13.4064 2.79357 17.2785C2.13603 20.2009 1.77074 23.2694 2.06297 24.3653C2.50133 26.0457 3.23192 26.9954 3.96252 27.9452C4.76617 29.1872 5.86206 30.5023 6.08124 33.2785Z" fill="#F2653D"/>
<path d="M14.629 40H3.45093C3.01258 40 2.57422 39.6347 2.57422 39.1233V34.0092C2.57422 33.5708 2.93952 33.1324 3.45093 33.1324H14.629C15.0674 33.1324 15.5057 33.4977 15.5057 34.0092V39.1233C15.4327 39.6347 15.0674 40 14.629 40ZM4.32764 38.3197H13.6792V34.9589H4.32764V38.3197Z" fill="#F2653D"/>
<path d="M11.999 37.443C11.7798 37.443 11.5606 37.3699 11.4145 37.2238C11.2684 37.0777 11.1953 36.8585 11.1953 36.6393C11.1953 36.4202 11.2684 36.201 11.4145 36.0549C11.5606 35.9088 11.7798 35.8357 11.999 35.8357C12.2181 35.8357 12.4373 35.9088 12.5834 36.0549C12.7296 36.201 12.8026 36.4202 12.8026 36.6393C12.8026 36.8585 12.7296 37.0777 12.5834 37.2238C12.4373 37.3699 12.2181 37.443 11.999 37.443Z" fill="#F2653D"/>
<path d="M19.6702 39.9999C19.2318 39.9999 18.7935 39.6346 18.7935 39.1232V9.38807C18.7935 8.94971 19.1588 8.51135 19.6702 8.51135C20.1085 8.51135 20.5469 8.87665 20.5469 9.38807V39.1963C20.5469 39.6346 20.1085 39.9999 19.6702 39.9999Z" fill="#F2653D"/>
<path d="M19.6704 19.105C19.5243 19.105 19.3782 19.032 19.2321 18.9589C15.5061 16.6941 13.2412 13.1872 13.2412 9.53424C13.2412 5.88128 15.3599 2.37443 19.2321 0.109589C19.5243 -0.0365297 19.8166 -0.0365297 20.1088 0.109589C23.8348 2.37443 26.0997 5.88128 26.0997 9.53424C26.0997 13.1872 23.9079 16.6941 20.1088 18.9589C19.9627 19.032 19.8166 19.105 19.6704 19.105ZM19.6704 1.78995C16.7481 3.76256 14.9216 6.61187 14.9216 9.53424C14.9216 12.4566 16.6019 15.3059 19.6704 17.2785C22.6659 15.3059 24.4193 12.4566 24.4193 9.53424C24.4193 6.61187 22.6659 3.76256 19.6704 1.78995Z" fill="#F2653D"/>
<path d="M21.2778 27.2876C20.7664 27.2876 20.1819 27.2146 19.5974 27.0684C19.3052 26.9954 19.086 26.7762 18.9399 26.4109C18.4285 24.2922 18.8669 22.3196 20.1819 21.0045C21.1317 20.0548 22.4468 19.5433 23.908 19.5433C24.4194 19.5433 25.0038 19.6164 25.5883 19.7625C25.8806 19.8356 26.0997 20.0548 26.2459 20.42C26.7573 22.5388 26.3189 24.5114 25.0038 25.8264C24.1271 26.7762 22.739 27.2876 21.2778 27.2876ZM20.5472 25.5342C20.7664 25.6073 21.0586 25.6073 21.2778 25.6073C22.3006 25.6073 23.1774 25.315 23.7618 24.6575C24.5655 23.8538 24.8577 22.6849 24.6385 21.3698C24.4194 21.3698 24.1271 21.2968 23.908 21.2968C22.8851 21.2968 22.0084 21.6621 21.4239 22.2465C20.6933 22.9771 20.328 24.2191 20.5472 25.5342Z" fill="#F2653D"/>
<path d="M18.0632 27.2876C16.602 27.2876 15.287 26.7762 14.3372 25.8264C13.0221 24.5114 12.5838 22.5388 13.0952 20.42C13.1682 20.1278 13.3874 19.9086 13.7527 19.7625C14.3372 19.6164 14.8486 19.5433 15.4331 19.5433C16.8943 19.5433 18.2093 20.0548 19.1591 21.0045C20.4742 22.3196 20.9125 24.2922 20.4011 26.4109C20.3281 26.7032 20.1089 26.9223 19.7436 27.0684C19.1591 27.2146 18.5746 27.2876 18.0632 27.2876ZM14.6294 21.2968C14.4103 22.6118 14.7756 23.7808 15.5061 24.5114C16.1637 25.1689 16.9673 25.4611 17.9902 25.4611C18.2093 25.4611 18.5016 25.4611 18.7208 25.3881C18.9399 24.073 18.5746 22.9041 17.844 22.1004C17.2596 21.5159 16.3829 21.1506 15.36 21.1506C15.1408 21.2237 14.9217 21.2968 14.6294 21.2968Z" fill="#F2653D"/>
</svg>
